# xmcd
#
# Track frame offsets: 
#        150
#        11216
#        23816
#        54783
#        81191
#        98219
#        112047
#        126548
#        150783
#        168252
#        180731
#
# Disc length: 2731 seconds
#
# Revision: 0
# Processed by: cddbd v1.5.2PL0 Copyright (c) Steve Scherf et al.
# Submitted via: ExactAudioCopy v0.99pb4
#
DISCID=810aa90b
DTITLE=Texas Tea - The Junkship Recordings
DYEAR=2008
DGENRE=Other
TTITLE0=Cane Farmer's Song
TTITLE1=Kiss Me Gently
TTITLE2=Autumn
TTITLE3=The Westerlies
TTITLE4=Don't Believe In Jesus
TTITLE5=The Ferry Song
TTITLE6=Billy
TTITLE7=Down To The Shore
TTITLE8=Wonderful Things
TTITLE9=Raining Pleasure
TTITLE10=Winter
EXTD=
EXTT0=
EXTT1=
EXTT2=
EXTT3=
EXTT4=
EXTT5=
EXTT6=
EXTT7=
EXTT8=
EXTT9=
EXTT10=
PLAYORDER=
